<?xml version="1.0" encoding="UTF-8"?>
<svg width="275px" height="38px" viewBox="0 0 275 38" version="1.1" xmlns="http://www.w3.org/2000/svg" xmlns:xlink="http://www.w3.org/1999/xlink">
    <title>CA34B0A2-4F33-41B3-82BA-2D0747149674</title>
    <g id="Motorhuis" stroke="none" stroke-width="1" fill="none" fill-rule="evenodd">
        <g id="Form/Vraag_0" transform="translate(-167.000000, -48.000000)" fill-rule="nonzero">
            <g id="Powered-by" transform="translate(167.000000, 48.000000)">
                <g id="logo" transform="translate(88.000000, 0.500000)" fill="#000000">
                    <path d="M24.7235577,7.64399851 C22.4542456,7.64399851 19.9460586,8.59949833 17.3184341,10.510498 C16.2434968,8.59949833 14.3324972,7.64399851 11.8243102,7.64399851 C9.43556067,7.64399851 7.04681113,8.48006085 4.65806159,10.271623 L4.06087421,7.64399851 L0,7.64399851 L0,28.5455569 L5.01637402,28.5455569 L5.01637402,14.5713722 C6.6884987,12.6603725 8.36062337,11.8243102 9.91331057,11.8243102 C11.7048727,11.8243102 12.77981,13.018685 12.77981,15.4074345 L12.77981,28.5455569 L18.035059,28.5455569 L18.035059,14.5713722 C19.7071837,12.77981 21.3793083,11.8243102 22.9319955,11.8243102 C24.8429952,11.8243102 25.9179325,12.8992475 25.9179325,15.287997 L25.9179325,28.5455569 L31.1731814,28.5455569 L31.1731814,15.526872 C31.1731814,10.271623 29.1427443,7.64399851 24.7235577,7.64399851 Z M45.6251161,7.40512356 C38.578305,7.40512356 35.2340556,10.9882479 35.2340556,18.035059 C35.3534931,25.0818701 38.81718,28.6649944 45.6251161,28.6649944 C52.6719273,28.6649944 56.0161766,25.0818701 56.0161766,18.035059 C56.0161766,10.9882479 52.5524898,7.40512356 45.6251161,7.40512356 Z M45.6251161,24.4846827 C42.1614293,24.4846827 40.4893046,22.4542456 40.3698671,17.9156215 C40.3698671,13.6158724 42.1614293,11.5854352 45.6251161,11.5854352 C49.2082404,11.5854352 50.8803651,13.8547473 50.8803651,17.9156215 C50.8803651,22.2153707 48.9693655,24.4846827 45.6251161,24.4846827 Z M63.8990501,4.18031169 L59.8381759,4.18031169 L59.8381759,22.8125581 C59.8381759,26.5151198 61.5103005,28.306682 64.9739874,28.306682 L69.2737365,28.306682 L69.2737365,24.2458078 L67.6016119,24.2458078 C66.0489247,24.2458078 65.0934248,23.290308 65.0934248,21.2598709 L65.0934248,11.7048727 L69.393174,11.7048727 L69.393174,7.64399851 L64.6156749,7.64399851 L63.8990501,4.18031169 Z M82.5312965,7.40512356 C75.4844853,7.40512356 72.140236,10.9882479 72.140236,18.035059 C72.140236,25.0818701 75.6039228,28.6649944 82.5312965,28.6649944 C89.4586701,28.6649944 92.9223569,25.0818701 92.9223569,18.035059 C92.9223569,10.9882479 89.5781076,7.40512356 82.5312965,7.40512356 Z M82.5312965,24.4846827 C78.9481721,24.4846827 77.2760475,22.4542456 77.2760475,17.9156215 C77.2760475,13.6158724 79.0676096,11.5854352 82.5312965,11.5854352 C86.1144208,11.5854352 87.7865454,13.8547473 87.7865454,17.9156215 C87.7865454,22.2153707 85.9949833,24.4846827 82.5312965,24.4846827 Z M101.044105,7.64399851 L96.9832311,7.64399851 L96.9832311,28.5455569 L102.119043,28.5455569 L102.119043,14.4519347 C103.67173,12.77981 105.463292,11.8243102 107.374292,11.8243102 L107.374292,7.64399851 C105.343855,7.64399851 103.432855,8.48006085 101.641293,10.271623 L101.044105,7.64399851 Z M122.901164,7.64399851 C120.392977,7.64399851 118.004227,8.36062337 115.854352,9.91331057 L115.854352,0 L110.599103,0 L110.599103,28.5455569 L115.734915,28.5455569 L115.734915,14.4519347 C117.526477,12.77981 119.437477,11.8243102 121.229039,11.8243102 C123.617788,11.8243102 124.692726,12.8992475 124.692726,15.287997 L124.692726,28.5455569 L129.947975,28.5455569 L129.947975,15.4074345 C130.067412,10.271623 127.678663,7.64399851 122.901164,7.64399851 L122.901164,7.64399851 Z M149.177408,21.6181833 C147.385846,23.290308 145.474847,24.2458078 143.683285,24.2458078 C141.294535,24.2458078 140.219598,23.1708705 140.219598,20.782121 L140.219598,7.64399851 L134.964349,7.64399851 L134.964349,20.782121 C134.964349,25.9179325 137.353098,28.6649944 142.130597,28.6649944 C144.758222,28.6649944 147.266409,27.7094946 149.774596,25.9179325 L150.371783,28.6649944 L154.432657,28.6649944 L154.432657,7.64399851 L149.296846,7.64399851 L149.296846,21.6181833 L149.177408,21.6181833 L149.177408,21.6181833 Z M159.449031,0 L164.70428,0 L164.70428,4.18031169 L159.449031,4.18031169 L159.449031,0 Z M159.449031,7.64399851 L164.70428,7.64399851 L164.70428,28.5455569 L159.449031,28.5455569 L159.449031,7.64399851 Z M179.514528,15.7657469 L176.170278,15.7657469 C174.617591,15.7657469 173.662091,15.1685596 173.662091,13.8547473 C173.662091,12.4214976 175.095341,11.5854352 177.96184,11.5854352 C180.708902,11.5854352 183.097652,12.0631852 185.486401,12.8992475 L185.486401,8.59949833 C183.097652,7.76343599 180.708902,7.40512356 178.081278,7.40512356 C171.989967,7.40512356 168.884592,9.67443562 168.884592,13.9741848 C168.884592,18.1544965 170.915029,20.1849336 175.095341,20.1849336 L178.797903,20.1849336 C180.231152,20.1849336 181.067215,20.782121 181.067215,22.0959332 C181.067215,23.5291829 179.992277,24.3652453 177.722965,24.3652453 C174.617591,24.3652453 172.109404,23.8874954 169.720654,23.051433 L169.720654,27.4706197 C172.109404,28.306682 174.617591,28.6649944 177.48409,28.6649944 C183.336527,28.6649944 186.322464,26.3956824 186.322464,22.0959332 C186.441901,17.796184 184.053152,15.7657469 179.514528,15.7657469 L179.514528,15.7657469 Z" id="Shape"></path>
                </g>
                <path d="M1.95,31.7953578 L1.95,28.6753578 C1.95,28.3373578 1.924,28.1033578 1.924,28.1033578 L1.95,28.1033578 C1.95,28.1033578 2.522,29.3513578 4.095,29.3513578 C5.785,29.3513578 7.02,27.9993578 7.02,25.9323578 C7.02,23.9043578 5.928,22.5003578 4.173,22.5003578 C2.444,22.5003578 1.911,23.8003578 1.911,23.8003578 L1.885,23.8003578 C1.885,23.8003578 1.911,23.5793578 1.911,23.2933578 L1.911,22.6563578 L1.066,22.6563578 L1.066,31.7953578 L1.95,31.7953578 Z M4.004,28.5713578 C2.652,28.5713578 1.924,27.2583578 1.924,25.9453578 C1.924,24.0863578 2.951,23.3063578 4.043,23.3063578 C5.265,23.3063578 6.11,24.3333578 6.11,25.9323578 C6.11,27.5963578 5.161,28.5713578 4.004,28.5713578 Z M11.7,29.3513578 C13.611,29.3513578 15.158,27.8693578 15.158,25.8933578 C15.158,23.9563578 13.611,22.5003578 11.7,22.5003578 C9.789,22.5003578 8.242,23.9563578 8.242,25.8933578 C8.242,27.8693578 9.789,29.3513578 11.7,29.3513578 Z M11.7,28.5583578 C10.296,28.5583578 9.152,27.4143578 9.152,25.8933578 C9.152,24.4113578 10.296,23.3063578 11.7,23.3063578 C13.104,23.3063578 14.248,24.4113578 14.248,25.8933578 C14.248,27.4143578 13.104,28.5583578 11.7,28.5583578 Z M19.136,29.1953578 L20.735,24.5413578 C20.839,24.2163578 20.93,23.8393578 20.93,23.8393578 L20.956,23.8393578 C20.956,23.8393578 21.047,24.2163578 21.164,24.5413578 L22.763,29.1953578 L23.725,29.1953578 L25.935,22.6563578 L24.999,22.6563578 L23.413,27.5313578 C23.309,27.8563578 23.218,28.2333578 23.218,28.2333578 L23.192,28.2333578 C23.192,28.2333578 23.101,27.8433578 22.997,27.5313578 L21.385,22.6823578 L20.514,22.6823578 L18.902,27.5313578 C18.798,27.8433578 18.707,28.2333578 18.707,28.2333578 L18.681,28.2333578 C18.681,28.2333578 18.59,27.8433578 18.486,27.5313578 L16.9,22.6563578 L15.964,22.6563578 L18.174,29.1953578 L19.136,29.1953578 Z M30.186,29.3513578 C31.655,29.3513578 32.604,28.4413578 32.604,28.4413578 L32.201,27.7653578 C32.201,27.7653578 31.408,28.5583578 30.212,28.5583578 C28.86,28.5583578 27.716,27.6483578 27.677,25.9713578 L32.695,25.9713578 C32.695,25.9713578 32.721,25.6723578 32.721,25.5163578 C32.721,23.8913578 31.798,22.5003578 29.991,22.5003578 C28.223,22.5003578 26.767,23.7873578 26.767,25.9323578 C26.767,27.9473578 28.236,29.3513578 30.186,29.3513578 Z M31.824,25.2433578 L27.716,25.2433578 C27.924,23.9303578 28.873,23.2413578 29.965,23.2413578 C30.94,23.2413578 31.772,23.8783578 31.824,25.2433578 Z M35.295,29.1953578 L35.295,26.4393578 C35.295,26.0233578 35.347,25.5813578 35.477,25.1653578 C35.763,24.2033578 36.452,23.4753578 37.375,23.4753578 C37.544,23.4753578 37.7,23.5013578 37.7,23.5013578 L37.7,22.6303578 C37.7,22.6303578 37.531,22.5913578 37.349,22.5913578 C36.322,22.5913578 35.594,23.3453578 35.282,24.3333578 L35.256,24.3333578 C35.256,24.3333578 35.282,24.0993578 35.282,23.8133578 L35.282,22.6563578 L34.411,22.6563578 L34.411,29.1953578 L35.295,29.1953578 Z M42.003,29.3513578 C43.472,29.3513578 44.421,28.4413578 44.421,28.4413578 L44.018,27.7653578 C44.018,27.7653578 43.225,28.5583578 42.029,28.5583578 C40.677,28.5583578 39.533,27.6483578 39.494,25.9713578 L44.512,25.9713578 C44.512,25.9713578 44.538,25.6723578 44.538,25.5163578 C44.538,23.8913578 43.615,22.5003578 41.808,22.5003578 C40.04,22.5003578 38.584,23.7873578 38.584,25.9323578 C38.584,27.9473578 40.053,29.3513578 42.003,29.3513578 Z M43.641,25.2433578 L39.533,25.2433578 C39.741,23.9303578 40.69,23.2413578 41.782,23.2413578 C42.757,23.2413578 43.589,23.8783578 43.641,25.2433578 Z M48.646,29.3513578 C50.362,29.3513578 50.895,28.0383578 50.895,28.0383578 L50.921,28.0383578 C50.921,28.0383578 50.895,28.2203578 50.895,28.5063578 L50.895,29.1953578 L51.753,29.1953578 L51.753,20.0563578 L50.869,20.0563578 L50.869,23.2413578 C50.869,23.5143578 50.895,23.7353578 50.895,23.7353578 L50.869,23.7353578 C50.869,23.7353578 50.323,22.5003578 48.737,22.5003578 C47.021,22.5003578 45.799,23.8523578 45.799,25.9193578 C45.799,27.9473578 46.891,29.3513578 48.646,29.3513578 Z M48.776,28.5583578 C47.554,28.5583578 46.709,27.5313578 46.709,25.9193578 C46.709,24.2683578 47.658,23.2933578 48.815,23.2933578 C50.219,23.2933578 50.895,24.5933578 50.895,25.9193578 C50.895,27.7783578 49.868,28.5583578 48.776,28.5583578 Z M60.385,29.3513578 C62.101,29.3513578 63.336,27.9993578 63.336,25.9323578 C63.336,23.9043578 62.244,22.5003578 60.489,22.5003578 C58.812,22.5003578 58.266,23.7613578 58.266,23.7613578 L58.24,23.7613578 C58.24,23.7613578 58.266,23.5273578 58.266,23.2283578 L58.266,20.0563578 L57.382,20.0563578 L57.382,29.1953578 L58.24,29.1953578 L58.24,28.6103578 C58.24,28.2983578 58.214,28.0773578 58.214,28.0773578 L58.24,28.0773578 C58.24,28.0773578 58.825,29.3513578 60.385,29.3513578 Z M60.32,28.5713578 C58.916,28.5713578 58.24,27.2583578 58.24,25.9453578 C58.24,24.0863578 59.267,23.3063578 60.359,23.3063578 C61.581,23.3063578 62.426,24.3333578 62.426,25.9323578 C62.426,27.5963578 61.477,28.5713578 60.32,28.5713578 Z M65.208,31.9253578 C66.079,31.9253578 66.755,31.3923578 67.093,30.5603578 L70.317,22.6563578 L69.355,22.6563578 L67.47,27.4273578 C67.34,27.7523578 67.249,28.1163578 67.249,28.1163578 L67.223,28.1163578 C67.223,28.1163578 67.119,27.7523578 66.989,27.4273578 L65.065,22.6563578 L64.09,22.6563578 L66.82,29.1433578 L66.417,30.0663578 C66.157,30.6643578 65.754,31.1323578 65.182,31.1323578 C64.766,31.1323578 64.402,30.8333578 64.402,30.8333578 L64.064,31.5353578 C64.064,31.5353578 64.532,31.9253578 65.208,31.9253578 Z" id="poweredby" fill="#58727E"></path>
            </g>
        </g>
    </g>
</svg>