<?xml version="1.0" encoding="UTF-8"?>
<svg width="70px" height="43px" viewBox="0 0 70 43" version="1.1" xmlns="http://www.w3.org/2000/svg" xmlns:xlink="http://www.w3.org/1999/xlink">
    <title>78A73ABF-C60F-4B45-94A4-79BD46CB76DE</title>
    <g id="Motorhuis" stroke="none" stroke-width="1" fill="none" fill-rule="evenodd">
        <g id="Form/Vraag_0" transform="translate(-1205.000000, -47.000000)" fill-rule="nonzero">
            <g id="Blue-Current-logo---Blue-v2" transform="translate(1205.000000, 47.512195)">
                <g id="Group" transform="translate(0.000000, 33.432373)">
                    <path d="M7.20798226,3.34323725 C7.59911308,3.1383592 7.81330377,2.7751663 7.81330377,2.30953437 L7.81330377,1.74146341 C7.81330377,1.12682927 7.56186253,0.102439024 5.88558758,0.102439024 L0.0465631929,0.102439024 L0.0465631929,7.07760532 L5.97871397,7.07760532 C7.24523282,7.07760532 7.85055432,6.46297118 7.85055432,5.5037694 L7.85055432,4.71219512 C7.85055432,3.99512195 7.77605322,3.53880266 7.20798226,3.34323725 Z M6.59334812,2.30022173 C6.59334812,2.57960089 6.50953437,2.95210643 5.76452328,2.95210643 L1.27583149,2.95210643 L1.27583149,1.15476718 L5.81108647,1.15476718 C5.94146341,1.15476718 6.59334812,1.1827051 6.59334812,1.69490022 L6.59334812,2.30022173 L6.59334812,2.30022173 Z M1.27583149,4.01374723 L5.52239468,4.01374723 C6.39778271,4.01374723 6.63991131,4.18137472 6.63991131,4.80532151 L6.63991131,5.28026608 C6.63991131,5.71796009 6.47228381,6.00665188 5.66208426,6.00665188 L1.27583149,6.00665188 L1.27583149,4.01374723 Z M9.19157428,0.0931263858 L10.2997783,0.0931263858 L10.2997783,7.06829268 L9.19157428,7.06829268 L9.19157428,0.0931263858 Z M16.697561,2.05809313 L17.805765,2.05809313 L17.805765,7.06829268 L16.7441242,7.06829268 L16.7441242,6.63059867 C16.362306,7.04035477 15.7756098,7.14279379 14.9933481,7.14279379 L13.810643,7.14279379 C11.9760532,7.14279379 11.7059867,6.04390244 11.7059867,5.39201774 L11.7059867,2.05809313 L12.8141907,2.05809313 L12.8141907,5.19645233 C12.8141907,5.78314856 12.9259424,6.17427938 14.378714,6.17427938 L14.583592,6.17427938 C16.4926829,6.17427938 16.6882483,5.78314856 16.6882483,4.87982262 L16.6882483,2.05809313 L16.697561,2.05809313 Z M22.6297118,1.99290466 L21.3631929,1.99290466 C20.1432373,1.99290466 18.9046563,2.23503326 18.9046563,4.05099778 L18.9046563,5.07538803 C18.9046563,6.91929047 20.1711752,7.15210643 21.2700665,7.15210643 L22.7042129,7.15210643 C23.8776053,7.15210643 25.2279379,6.9751663 25.2279379,5.59689579 L25.2279379,5.34545455 L24.1290466,5.34545455 L24.1197339,5.49445676 C24.0824834,6.06252772 23.8403548,6.19290466 22.8345898,6.19290466 L21.7543237,6.19290466 C20.3946785,6.19290466 20.0221729,5.94146341 20.0221729,5.01019956 L20.0221729,4.87982262 L25.2279379,4.87982262 L25.2279379,4.19068736 C25.2279379,2.25365854 23.9148559,1.99290466 22.6297118,1.99290466 Z M24.1104213,3.75299335 L24.1104213,3.90199557 L20.0314856,3.90199557 C20.1152993,3.09179601 20.3667406,2.95210643 21.4749446,2.95210643 L22.6297118,2.95210643 C23.3095344,2.95210643 24.1104213,3.09179601 24.1104213,3.75299335 Z" id="Shape" fill="#007CC9"></path>
                    <path d="M35.378714,4.51662971 L36.5427938,4.51662971 L36.5427938,5.13126386 C36.5427938,6.37915743 36.1423503,7.15210643 34.1308204,7.15210643 L30.7317073,7.15210643 C28.9343681,7.15210643 28.1986696,6.38847007 28.1986696,4.49800443 L28.1986696,2.68203991 C28.1986696,0.800886918 28.9343681,0.0279379157 30.7317073,0.0279379157 L34.1773836,0.0279379157 C35.2017738,0.0279379157 36.4217295,0.344567627 36.4217295,1.84390244 L36.4217295,2.57028825 L35.3135255,2.57028825 L35.3135255,2.10465632 C35.3135255,1.14545455 34.8013304,1.08026608 33.9538803,1.08026608 L30.8248337,1.08026608 C29.8283814,1.08026608 29.4279379,1.44345898 29.4279379,2.33747228 L29.4279379,4.83325942 C29.4279379,5.72727273 29.837694,6.09046563 30.8248337,6.09046563 L33.9725055,6.09046563 C35.1738359,6.09046563 35.3694013,5.83902439 35.3694013,5.0940133 L35.3694013,4.51662971 L35.378714,4.51662971 Z M42.6611973,4.88913525 C42.6611973,5.78314856 42.4656319,6.18359202 40.556541,6.18359202 L40.351663,6.18359202 C38.8988914,6.18359202 38.7871397,5.7924612 38.7871397,5.20576497 L38.7871397,2.06740576 L37.6789357,2.06740576 L37.6789357,5.40133038 C37.6789357,6.05321508 37.9490022,7.15210643 39.783592,7.15210643 L40.9662971,7.15210643 C41.7392461,7.15210643 42.335255,7.05898004 42.7170732,6.63991131 L42.7170732,7.07760532 L43.7694013,7.07760532 L43.7694013,2.06740576 L42.6611973,2.06740576 L42.6611973,4.88913525 Z M59.3215078,4.18137472 L59.3215078,4.87050998 L54.1064302,4.87050998 L54.1064302,5.00088692 C54.1064302,5.92283814 54.4789357,6.18359202 55.8385809,6.18359202 L56.918847,6.18359202 C57.924612,6.18359202 58.1667406,6.05321508 58.2039911,5.48514412 L58.2133038,5.33614191 L59.3215078,5.33614191 L59.3215078,5.58758315 C59.3215078,6.96585366 57.9711752,7.14279379 56.7977827,7.14279379 L55.3636364,7.14279379 C54.264745,7.14279379 52.9982262,6.90997783 52.9982262,5.06607539 L52.9982262,4.04168514 C52.9982262,2.23503326 54.2368071,1.98359202 55.4567627,1.98359202 L56.7232816,1.98359202 C58.0084257,1.99290466 59.3215078,2.25365854 59.3215078,4.18137472 Z M56.7232816,2.95210643 L55.5685144,2.95210643 C54.4603104,2.95210643 54.2088692,3.09179601 54.1250554,3.90199557 L58.2039911,3.90199557 L58.2039911,3.75299335 C58.2039911,3.09179601 57.3937916,2.95210643 56.7232816,2.95210643 Z M64.3689579,1.99290466 L63.1862528,1.99290466 C62.4133038,1.99290466 61.8172949,2.08603104 61.4354767,2.50509978 L61.4354767,2.06740576 L60.3738359,2.06740576 L60.3738359,7.07760532 L61.4820399,7.07760532 L61.4820399,4.25587583 C61.4820399,3.36186253 61.6776053,2.96141907 63.5866962,2.96141907 L63.7915743,2.96141907 C65.2443459,2.96141907 65.3560976,3.35254989 65.3560976,3.93924612 L65.3560976,7.07760532 L66.4643016,7.07760532 L66.4643016,3.74368071 C66.4736142,3.08248337 66.2035477,1.99290466 64.3689579,1.99290466 Z M67.4700665,3.02660754 L67.4700665,5.5037694 C67.4700665,6.59334812 68.1405765,7.14279379 69.4629712,7.14279379 L69.8634146,7.14279379 L69.8634146,6.17427938 L69.5840355,6.17427938 C68.7924612,6.17427938 68.5782705,5.96008869 68.5782705,5.19645233 L68.5782705,3.02660754 L69.8727273,3.02660754 L69.8727273,2.05809313 L68.5782705,2.05809313 L68.5782705,0.949889135 L67.4700665,0.949889135 L67.4700665,2.05809313 L67.4700665,3.02660754 Z M48.2301552,1.99290466 L47.4944568,1.99290466 C46.9356984,1.99290466 46.5073171,2.14190687 46.2,2.43059867 L46.2,2.06740576 L45.1383592,2.06740576 L45.1383592,7.07760532 L46.2465632,7.07760532 L46.2465632,3.93924612 C46.2465632,3.46430155 46.5259424,2.96141907 47.3268293,2.96141907 L47.8110865,2.96141907 C47.9600887,2.96141907 48.0997783,2.96141907 48.2208426,2.97073171 L48.2208426,1.99290466 L48.2301552,1.99290466 Z M52.2066519,1.99290466 L51.4709534,1.99290466 C50.9121951,1.99290466 50.4838137,2.14190687 50.1764967,2.43059867 L50.1764967,2.06740576 L49.1148559,2.06740576 L49.1148559,7.07760532 L50.2230599,7.07760532 L50.2230599,3.93924612 C50.2230599,3.46430155 50.502439,2.96141907 51.3033259,2.96141907 L51.7875831,2.96141907 C51.9365854,2.96141907 52.0762749,2.96141907 52.1973392,2.97073171 L52.1973392,1.99290466 L52.2066519,1.99290466 Z" id="Shape" fill="#3399FF"></path>
                </g>
                <g id="Group" transform="translate(18.811530, 0.000000)">
                    <path d="M15.9711752,27.4815965 C24.7902439,27.4815965 31.9423503,20.32949 31.9423503,11.5104213 C31.9423503,8.77250554 31.2439024,6.20221729 30.0425721,3.93924612 C29.0554324,2.10465632 26.9135255,0.00931263858 22.8159645,0.00931263858 L9.12638581,0.00931263858 C5.02882483,0.00931263858 2.88691796,2.10465632 1.90909091,3.93924612 C0.707760532,6.19290466 0.00930355452,8.77250554 0.00930355452,11.5104213 C1.73472348e-18,20.32949 7.15210643,27.4815965 15.9711752,27.4815965 Z" id="Path" fill="#3399FF"></path>
                    <path d="M11.3614191,13.8292683 L19.7986696,13.8292683 C20.3667406,13.8292683 20.8323725,14.2949002 20.8323725,14.8629712 C20.8323725,15.4310421 20.3667406,15.8966741 19.7986696,15.8966741 L11.3614191,15.8966741 L11.3614191,13.8292683 Z M11.3614191,11.1472284 L19.7986696,11.1472284 C20.3667406,11.1472284 20.8323725,10.6815965 20.8323725,10.1135255 C20.8323725,9.54545455 20.3667406,9.07982262 19.7986696,9.07982262 L11.3614191,9.07982262 L11.3614191,11.1472284 Z M23.6447894,14.6301552 L23.6447894,16.9210643 C23.6447894,17.8709534 22.8718404,18.6439024 21.9219512,18.6439024 L10.0203991,18.6439024 C9.07050998,18.6439024 8.29756098,17.8709534 8.29756098,16.9210643 L8.29756098,8.05543237 C8.29756098,7.10554324 9.07050998,6.33259424 10.0203991,6.33259424 L21.9219512,6.33259424 C22.8718404,6.33259424 23.6447894,7.10554324 23.6447894,8.05543237 L23.6447894,9.96452328 L25.7121951,9.96452328 L25.7121951,8.05543237 C25.7121951,5.96008869 24.0079823,4.25587583 21.9126386,4.25587583 L10.0203991,4.25587583 C7.92505543,4.25587583 6.22084257,5.96008869 6.22084257,8.05543237 L6.22084257,16.9210643 C6.22084257,19.016408 7.92505543,20.7206208 10.0203991,20.7206208 L21.9219512,20.7206208 C24.0172949,20.7206208 25.7215078,19.016408 25.7215078,16.9210643 L25.7215078,14.6301552 L23.6447894,14.6301552 L23.6447894,14.6301552 Z" id="Shape" fill="#FFFFFF"></path>
                </g>
            </g>
        </g>
    </g>
</svg>